<svg width="19" height="10" viewBox="0 0 19 10" fill="none" xmlns="http://www.w3.org/2000/svg">
<path d="M2.35289e-05 9.568V0H1.04002V4.329H2.71702L5.34302 0H6.43502L3.53602 4.784L6.47402 9.568H5.36902L2.71702 5.265H1.04002V9.568H2.35289e-05ZM7.85812 9.568V2.626H8.66412L8.88512 3.393C9.23178 3.15033 9.61745 2.94233 10.0421 2.769C10.4755 2.59567 10.9565 2.509 11.4851 2.509C11.9185 2.509 12.2868 2.60867 12.5901 2.808C12.9021 2.99867 13.1361 3.24133 13.2921 3.536C13.5088 3.38 13.7688 3.224 14.0721 3.068C14.3841 2.912 14.7135 2.782 15.0601 2.678C15.4155 2.56533 15.7578 2.509 16.0871 2.509C16.5898 2.509 17.0015 2.61733 17.3221 2.834C17.6428 3.042 17.8768 3.328 18.0241 3.692C18.1801 4.04733 18.2581 4.446 18.2581 4.888V9.568H17.2311V4.966C17.2311 4.67133 17.1705 4.41133 17.0491 4.186C16.9365 3.952 16.7718 3.77 16.5551 3.64C16.3385 3.51 16.0741 3.445 15.7621 3.445C15.3721 3.445 14.9735 3.51867 14.5661 3.666C14.1588 3.81333 13.7818 3.991 13.4351 4.199C13.4785 4.329 13.5088 4.459 13.5261 4.589C13.5521 4.71033 13.5651 4.84033 13.5651 4.979V9.568H12.5381V4.966C12.5381 4.67133 12.4775 4.41133 12.3561 4.186C12.2435 3.952 12.0788 3.77 11.8621 3.64C11.6541 3.51 11.3941 3.445 11.0821 3.445C10.7961 3.445 10.5275 3.47533 10.2761 3.536C10.0335 3.588 9.79945 3.666 9.57412 3.77C9.35745 3.86533 9.12778 3.98233 8.88512 4.121V9.568H7.85812Z" fill="white"/>
</svg>
