<svg width="17" height="17" viewBox="0 0 17 17" fill="none" xmlns="http://www.w3.org/2000/svg">
<path d="M16.4592 10.0008C16.114 11.6864 15.2561 13.224 14.0029 14.4028C12.7497 15.5817 11.1626 16.3442 9.45917 16.5858V14.8983C10.7173 14.674 11.8846 14.0931 12.8224 13.2248C13.7601 12.3565 14.4289 11.2372 14.7492 10L16.4592 10.0008ZM1.83583 10.0008C2.15268 11.2238 2.81006 12.3317 3.73158 13.1958C4.6531 14.0599 5.80092 14.6448 7.04167 14.8825V16.5742C5.35493 16.3172 3.78756 15.5491 2.55093 14.3736C1.31431 13.198 0.467891 11.6716 0.125833 10L1.83583 10.0008ZM13.2925 7.5V9.16667H12.4592C11.604 9.16667 10.7815 9.49536 10.1618 10.0848C9.54217 10.6742 9.17276 11.4792 9.13 12.3333L9.12583 12.5V13.3333H7.45917V12.5C7.45917 11.6448 7.13047 10.8223 6.54106 10.2027C5.95166 9.583 5.14663 9.21359 4.2925 9.17083L4.12583 9.16667H3.2925V7.5H13.2925ZM8.2925 0C12.6133 0 16.1667 3.28917 16.5842 7.5H14.9075C14.7041 5.88908 13.9199 4.40773 12.702 3.3339C11.4841 2.26007 9.91621 1.66756 8.2925 1.66756C6.66879 1.66756 5.10089 2.26007 3.88298 3.3339C2.66507 4.40773 1.88086 5.88908 1.6775 7.5H0C0.418333 3.28917 3.97167 0 8.2925 0Z" fill="white"/>
</svg>
